<svg width="1280" height="420" viewBox="0 0 1280 420" fill="none" xmlns="http://www.w3.org/2000/svg">
  <rect width="1280" height="420" rx="34" fill="#0D1117"/>
  <circle cx="1015" cy="116" r="118" fill="#238636" opacity="0.22"/>
  <circle cx="264" cy="318" r="130" fill="#2EA043" opacity="0.18"/>
  <path d="M176 276C302 154 425 153 552 246C690 347 823 332 934 226C1008 155 1076 137 1132 164" stroke="#39D353" stroke-width="5" stroke-linecap="round" opacity="0.78"/>
  <path d="M176 300C302 178 425 177 552 270C690 371 823 356 934 250C1008 179 1076 161 1132 188" stroke="#26A641" stroke-width="2" stroke-linecap="round" opacity="0.38"/>
  <g transform="translate(112 92)">
    <rect x="0" y="0" width="1056" height="236" rx="28" fill="#0B1220" opacity="0.92" stroke="#1F2937"/>
    <text x="54" y="78" fill="#F8FAFC" font-family="Inter, Segoe UI, Arial, sans-serif" font-size="56" font-weight="800" letter-spacing="-1.5">Bartolomeu Hangalo</text>
    <text x="56" y="126" fill="#CBD5E1" font-family="Inter, Segoe UI, Arial, sans-serif" font-size="25" font-weight="500">Software Engineer · Product Builder · Systems Architect</text>
    <text x="56" y="158" fill="#94A3B8" font-family="Inter, Segoe UI, Arial, sans-serif" font-size="18">Luanda, Angola · SaaS platforms · Business systems · Operational software</text>
    <rect x="56" y="180" width="562" height="38" rx="19" fill="#111827" stroke="#334155"/>
    <text x="78" y="205" fill="#B7F5C8" font-family="Inter, Segoe UI, Arial, sans-serif" font-size="17" font-weight="700">Multi-tenant SaaS</text>
    <circle cx="240" cy="199" r="4" fill="#64748B"/>
    <text x="256" y="205" fill="#7EE787" font-family="Inter, Segoe UI, Arial, sans-serif" font-size="17" font-weight="700">Business automation</text>
    <circle cx="452" cy="199" r="4" fill="#64748B"/>
    <text x="468" y="205" fill="#56D364" font-family="Inter, Segoe UI, Arial, sans-serif" font-size="17" font-weight="700">APIs and data models</text>
  </g>
</svg>
